<svg xmlns="http://www.w3.org/2000/svg" viewBox="0 0 512 512">
	<g>
		<path d="M7.744,91.526C4.659,46.07,40.675,7.5,86.205,7.5h339.579c45.53,0,81.545,38.57,78.461,84.026    l-23.044,339.61c-2.802,41.298-37.096,73.364-78.461,73.364H109.249c-41.365,0-75.659-32.066-78.461-73.364L7.744,91.526z" fill="#949daa"/>
		<path d="M425.784,7.5h-33c45.53,0,81.545,38.57,78.461,84.026l-23.044,339.61    c-2.802,41.298-37.096,73.364-78.461,73.364h33c41.365,0,75.659-32.066,78.461-73.364l23.044-339.61    C507.329,46.07,471.314,7.5,425.784,7.5z" fill="#6a6e77"/>
		<path d="M142.994,174.5c0-62.408,50.592-113,113-113s113,50.592,113,113H142.994z" fill="#dde8fc"/>
		
	</g>
	<g fill="#535c68">
		<path d="M488.705,27.326C472.239,9.705,449.893,0,425.784,0H86.205C36.962,0-3.072,42.923,0.261,92.034l15.028,221.474    c0.654,9.647,15.62,8.636,14.966-1.016L15.227,91.019C12.473,50.449,45.541,15,86.205,15h339.579    c40.664,0,73.731,35.449,70.978,76.019l-23.044,339.61C471.193,467.846,440.015,497,402.74,497h-293.49    c-37.276,0-68.453-29.154-70.979-66.372l-5.234-77.136c-0.656-9.649-15.62-8.635-14.966,1.016l5.234,77.136    C26.363,476.704,64.114,512,109.249,512h293.49c45.136,0,82.887-35.296,85.944-80.356l23.044-339.61    C513.363,67.943,505.186,44.963,488.705,27.326z"/>
		<path d="M331.494,174.5c0,4.142,3.358,7.5,7.5,7.5h30c4.142,0,7.5-3.358,7.5-7.5c0-66.444-54.056-120.5-120.5-120.5    s-120.5,54.056-120.5,120.5c0,4.142,3.358,7.5,7.5,7.5h155c9.673,0,9.673-15,0-15h-36.327l-32.632-58.169    c-4.732-8.436-17.814-1.097-13.082,7.339L244.468,167h-93.71c1.624-23.02,10.668-44.024,24.747-60.631l10.294,10.293    c6.838,6.841,17.447-3.767,10.606-10.606L185.99,95.64c9.984-8.873,21.659-15.88,34.473-20.477l3.744,13.971    c2.495,9.311,16.994,5.466,14.489-3.883l-3.786-14.128c13.154-2.679,26.81-2.817,40.017-0.414l-3.695,13.788    c-2.504,9.349,11.994,13.194,14.489,3.883l3.734-13.934c12.858,4.311,24.619,11.031,34.742,19.629l-9.921,9.921    c-6.84,6.839,3.767,17.446,10.606,10.606l10.036-10.036c14.972,16.878,24.628,38.573,26.312,62.434h-22.236    C334.852,167,331.494,170.358,331.494,174.5z"/>
	</g>
</svg>
