<?xml version="1.0" standalone="no"?>
<!DOCTYPE svg PUBLIC "-//W3C//DTD SVG 20010904//EN"
 "http://www.w3.org/TR/2001/REC-SVG-20010904/DTD/svg10.dtd">
<svg version="1.0" xmlns="http://www.w3.org/2000/svg"
 width="700.000000pt" height="700.000000pt" viewBox="0 0 700.000000 700.000000"
 preserveAspectRatio="xMidYMid meet">
<metadata>
Created by potrace 1.14, written by Peter Selinger 2001-2017
</metadata>
<g transform="translate(0.000000,700.000000) scale(0.100000,-0.100000)"
fill="#000000" stroke="none">
<path d="M3330 6989 c-156 -26 -289 -69 -408 -131 -500 -262 -765 -817 -653
-1366 47 -229 158 -446 307 -599 23 -24 36 -43 30 -44 -6 0 -299 -2 -651 -3
-352 -1 -653 -6 -669 -11 -72 -20 -158 -87 -200 -154 -31 -49 -43 -90 -66
-217 -11 -60 -22 -122 -25 -139 -15 -79 -37 -203 -40 -225 -2 -14 -13 -74 -24
-135 -11 -60 -22 -126 -25 -145 -4 -19 -9 -46 -11 -60 -8 -36 -12 -59 -20
-110 -9 -54 -12 -71 -25 -135 -5 -27 -12 -66 -16 -85 -31 -187 -65 -376 -69
-390 -2 -8 -7 -31 -10 -50 -3 -19 -14 -84 -25 -145 -11 -60 -22 -123 -25 -140
-44 -253 -78 -444 -90 -505 -8 -41 -17 -88 -20 -105 -44 -258 -67 -384 -75
-425 -5 -25 -14 -72 -19 -105 -12 -69 -19 -107 -26 -150 -20 -104 -65 -356
-70 -385 -3 -19 -12 -69 -20 -110 -8 -41 -16 -91 -19 -110 -3 -19 -14 -82 -25
-140 -11 -58 -23 -123 -26 -145 -4 -22 -10 -53 -14 -70 -14 -56 -13 -145 4
-201 30 -104 92 -175 195 -223 l55 -26 2945 0 2945 0 67 33 c153 75 222 225
188 408 -7 38 -14 78 -16 89 -2 11 -8 45 -14 75 -6 30 -13 69 -15 85 -3 17
-14 77 -25 135 -10 58 -21 121 -24 140 -3 19 -8 44 -10 55 -2 11 -6 36 -10 55
-3 19 -8 44 -10 55 -2 11 -16 88 -30 170 -14 83 -28 161 -31 175 -7 31 -31
168 -51 285 -3 16 -16 88 -29 160 -27 149 -31 167 -39 215 -3 19 -17 96 -31
170 -13 75 -27 151 -30 170 -3 19 -12 71 -20 115 -8 44 -17 94 -20 110 -2 17
-7 41 -10 55 -6 28 -7 35 -29 165 -9 50 -18 101 -21 115 -5 23 -27 149 -40
225 -3 17 -8 41 -10 55 -3 14 -8 36 -10 50 -3 14 -7 39 -9 55 -5 33 -13 77
-21 115 -3 14 -8 42 -11 63 -3 21 -7 44 -8 50 -6 28 -16 84 -20 107 -2 14 -13
77 -25 140 -11 63 -23 129 -26 145 -2 17 -7 41 -10 55 -3 14 -14 77 -25 140
-11 63 -22 126 -25 140 -3 14 -12 64 -20 111 -8 48 -20 102 -27 120 -35 102
-127 191 -229 220 -33 10 -198 13 -681 14 -351 1 -640 3 -642 6 -3 2 13 25 36
49 244 270 356 623 315 1000 -9 89 -65 295 -87 325 -4 6 -11 21 -15 34 -12 39
-98 183 -147 247 -193 251 -451 408 -780 475 -65 13 -326 19 -388 8z m270
-701 c25 -5 56 -12 69 -14 35 -7 112 -48 167 -90 268 -204 294 -596 55 -833
-223 -222 -566 -220 -787 5 -214 216 -211 569 6 780 82 79 188 136 295 157 40
8 151 5 195 -5z m935 -3163 c154 -38 312 -147 360 -248 30 -65 17 -146 -31
-188 -62 -54 -149 -60 -209 -15 -19 15 -35 30 -35 35 0 15 -93 102 -128 120
-124 63 -317 57 -437 -15 -176 -105 -248 -316 -208 -611 37 -279 212 -437 470
-427 108 5 300 77 343 130 11 12 16 192 6 202 -2 1 -61 4 -132 5 -89 2 -138 7
-158 17 -93 47 -94 185 -3 234 31 16 60 18 254 18 325 -1 298 2 335 -31 l33
-29 1 -283 1 -282 -41 -42 c-63 -62 -269 -158 -411 -190 -16 -4 -39 -9 -50
-12 -50 -12 -294 -11 -366 2 -390 70 -623 378 -622 820 0 141 20 250 68 366
94 232 314 404 555 435 25 4 47 8 49 10 13 12 293 -5 356 -21z m-2217 -30 c16
-10 40 -35 51 -55 20 -36 21 -52 21 -331 l0 -294 47 50 c135 144 351 378 384
416 75 86 207 222 223 231 27 15 207 14 235 -1 35 -19 58 -65 53 -106 -4 -31
-24 -57 -126 -162 -284 -293 -326 -339 -321 -351 6 -15 167 -265 423 -656 57
-87 106 -173 109 -190 6 -41 -10 -81 -42 -102 -32 -21 -220 -27 -264 -8 -24
10 -101 109 -101 129 0 3 -17 34 -39 68 -21 34 -97 163 -170 287 -72 124 -135
232 -140 240 -8 11 -37 -14 -140 -120 l-131 -134 0 -180 c0 -167 -2 -184 -21
-216 -35 -57 -76 -81 -140 -82 -55 -1 -106 29 -134 77 l-25 42 0 673 c0 478 3
682 11 704 23 60 112 110 174 96 18 -4 46 -15 63 -25z"/>
</g>
</svg>
